<?xml version="1.0" encoding="UTF-8"?>
<!DOCTYPE svg PUBLIC "-//W3C//DTD SVG 1.1//EN" "http://www.w3.org/Graphics/SVG/1.1/DTD/svg11.dtd">
<!-- Creator: CorelDRAW X6 -->
<svg xmlns="http://www.w3.org/2000/svg" xml:space="preserve" width="5.68544in" height="1.79426in" version="1.1" style="shape-rendering:geometricPrecision; text-rendering:geometricPrecision; image-rendering:optimizeQuality; fill-rule:evenodd; clip-rule:evenodd"
viewBox="0 0 5685 1794"
 xmlns:xlink="http://www.w3.org/1999/xlink">
 <defs>
  <style type="text/css">
   <![CDATA[
    .fil2 {fill:none}
    .fil4 {fill:#0C1147}
    .fil0 {fill:#ED3237;fill-rule:nonzero}
    .fil3 {fill:#FEFEFE;fill-rule:nonzero}
    .fil1 {fill:#0C1147;fill-rule:nonzero}
   ]]>
  </style>
 </defs>
 <g id="Layer_x0020_1">
  <metadata id="CorelCorpID_0Corel-Layer"/>
  <path class="fil0" d="M866 1119c113,0 166,-56 166,-122 0,-157 -259,-91 -259,-196 0,-37 31,-68 104,-68 38,0 80,11 117,35l20 -49c-35,-24 -87,-38 -137,-38 -112,0 -164,56 -164,122 0,159 259,93 259,197 0,37 -32,66 -106,66 -55,0 -109,-21 -141,-49l-23 48c34,32 98,54 164,54zm389 -58l0 -138 214 0 0 -52 -214 0 0 -131 241 0 0 -53 -302 0 0 428 310 0 0 -53 -249 0zm611 58c67,0 124,-23 163,-67l-40 -38c-33,35 -73,51 -120,51 -97,0 -168,-70 -168,-164 0,-95 71,-164 168,-164 47,0 87,16 120,51l40 -38c-39,-44 -97,-67 -163,-67 -130,0 -227,92 -227,219 0,126 97,219 226,219zm499 0c113,0 181,-65 181,-189l0 -243 -59 0 0 241c0,95 -44,137 -121,137 -77,0 -120,-43 -120,-137l0 -241 -61 0 0 243c0,124 68,189 181,189zm732 -5l-101 -144c60,-21 94,-69 94,-135 0,-93 -67,-149 -178,-149l-167 0 0 428 61 0 0 -130 106 0c9,0 18,-1 27,-1l92 131 67 0zm-188 -182l-104 0 0 -192 104 0c78,0 119,35 119,96 0,61 -41,97 -119,97zm352 182l61 0 0 -428 -61 0 0 428zm347 0l60 0 0 -375 147 0 0 -53 -354 0 0 53 147 0 0 375zm676 -428l-60 0 -137 225 -137 -225 -65 0 170 279 0 149 60 0 0 -148 170 -280zm127 428l61 0 0 -428 -61 0 0 428zm440 5c113,0 181,-65 181,-189l0 -243 -59 0 0 241c0,95 -44,137 -121,137 -77,0 -120,-43 -120,-137l0 -241 -61 0 0 243c0,124 68,189 181,189zm835 -5l-1 -428 -50 0 -176 301 -179 -301 -50 0 0 428 59 0 0 -310 155 258 28 0 155 -260 1 312 59 0z"/>
  <path class="fil1" d="M289 639c49,-115 131,-212 232,-282 99,-68 218,-109 346,-113l1 29c-122,4 -236,43 -331,108 -97,66 -175,160 -222,269l-27 -12z"/>
  <path class="fil2" d="M728 1515c-155,-40 -287,-137 -372,-267"/>
  <path class="fil1" d="M724 1529c-79,-20 -151,-55 -215,-101 -65,-47 -121,-105 -165,-172l25 -16c42,64 96,120 158,165 61,44 131,77 206,97l-7 28z"/>
  <path class="fil2" d="M1464 1174c-53,110 -136,200 -236,262"/>
  <path class="fil1" d="M1477 1180c-27,56 -61,106 -101,151 -41,46 -88,85 -140,117l-16 -25c49,-31 94,-68 133,-112 38,-43 71,-91 97,-144l27 13z"/>
  <path class="fil3" d="M285 869c-16,-8 -32,-17 -47,-28 -15,-11 -28,-23 -41,-37 -5,-5 -9,-11 -13,-17 -4,-6 -8,-12 -11,-17l7 -4c3,6 7,11 11,17 4,6 8,11 13,16 12,14 25,26 40,36 15,11 30,20 46,27l-3 7z"/>
  <circle class="fil4" cx="1422" cy="246" r="246"/>
  <circle class="fil4" cx="197" cy="903" r="197"/>
  <circle class="fil4" cx="1010" cy="1501" r="123"/>
  <circle class="fil4" cx="1286" cy="1708" r="86"/>
  <circle class="fil4" cx="1040" cy="315" r="111"/>
  <path class="fil1" d="M1202 1209c-86,86 -199,129 -312,129 -113,0 -226,-43 -312,-129 -86,-86 -129,-199 -129,-312 0,-113 43,-226 129,-312 86,-86 199,-129 312,-129 113,0 226,43 312,129l-21 21c-80,-80 -186,-121 -291,-121 -105,0 -211,40 -291,121 -80,80 -121,186 -121,291 0,105 40,211 121,291 80,80 186,121 291,121 105,0 211,-40 291,-121l21 21z"/>
 </g>
</svg>
